<svg xmlns="http://www.w3.org/2000/svg" xmlns:xlink="http://www.w3.org/1999/xlink" width="800" height="450" style="overflow:hidden"><style type="text/css">circle{fill:red;stroke:none}circle:nth-of-type(2n){fill:green}circle:nth-of-type(3n){opacity:.8}circle:nth-of-type(5n){opacity:.6}circle:nth-of-type(7n){opacity:.9}circle:nth-of-type(11n){opacity:.7}circle:nth-of-type(13n){opacity:.5}</style><defs id="defs"><clipPath id="_ABSTRACT_RENDERER_ID_4"><rect width="513" height="278" x="144" y="86"/></clipPath></defs><rect width="800" height="450" x="0" y="0" fill="#fff"/><g><text x="144" y="60.9" fill="#000" font-family="Arial" font-size="14" font-weight="bold" text-anchor="start">Screen Resolution</text></g><g><rect width="513" height="278" x="144" y="86" fill="#fff" fill-opacity="0"/><g clip-path="url(#_ABSTRACT_RENDERER_ID_4)"><g><rect width="1" height="278" x="144" y="86" fill="#ccc"/><rect width="1" height="278" x="272" y="86" fill="#ccc"/><rect width="1" height="278" x="400" y="86" fill="#ccc"/><rect width="1" height="278" x="528" y="86" fill="#ccc"/><rect width="1" height="278" x="656" y="86" fill="#ccc"/><rect width="513" height="1" x="144" y="363" fill="#ccc"/><rect width="513" height="1" x="144" y="294" fill="#ccc"/><rect width="513" height="1" x="144" y="225" fill="#ccc"/><rect width="513" height="1" x="144" y="155" fill="#ccc"/><rect width="513" height="1" x="144" y="86" fill="#ccc"/></g><g><rect width="1" height="278" x="144" y="86" fill="#3333"/><rect width="513" height="1" x="144" y="363" fill="#3333"/></g></g><g><circle cx="195.7" cy="321.95" r="4.5"/><circle cx="208.5" cy="321.95" r="4.5"/><circle cx="213.407" cy="318.718" r="4.5"/><circle cx="212.768" cy="308.1" r="4.5"/><circle cx="212.768" cy="308.1" r="4.5"/><circle cx="212.768" cy="308.1" r="4.5"/><circle cx="212.768" cy="308.1" r="4.5"/><circle cx="212.768" cy="308.1" r="4.5"/><circle cx="212.768" cy="308.1" r="4.5"/><circle cx="212.768" cy="308.1" r="4.5"/><circle cx="212.768" cy="308.1" r="4.5"/><circle cx="212.768" cy="308.1" r="4.5"/><circle cx="212.768" cy="308.1" r="4.5"/><circle cx="221.3" cy="308.1" r="4.5"/><circle cx="229.833" cy="308.1" r="4.5"/><circle cx="229.833" cy="308.1" r="4.5"/><circle cx="229.833" cy="308.1" r="4.5"/><circle cx="229.833" cy="308.1" r="4.5"/><circle cx="230.9" cy="301.175" r="4.5"/><circle cx="246.9" cy="300.713" r="4.5"/><circle cx="234.1" cy="298.868" r="4.5"/><circle cx="253.727" cy="292.634" r="4.5"/><circle cx="257.78" cy="289.864" r="4.5"/><circle cx="235.593" cy="289.633" r="4.5"/><circle cx="246.9" cy="289.633" r="4.5"/><circle cx="246.9" cy="289.633" r="4.5"/><circle cx="246.9" cy="289.633" r="4.5"/><circle cx="246.9" cy="289.633" r="4.5"/><circle cx="246.9" cy="289.633" r="4.5"/><circle cx="246.9" cy="289.633" r="4.5"/><circle cx="246.9" cy="289.633" r="4.5"/><circle cx="246.9" cy="289.633" r="4.5"/><circle cx="246.9" cy="289.633" r="4.5"/><circle cx="246.9" cy="289.633" r="4.5"/><circle cx="246.9" cy="289.633" r="4.5"/><circle cx="246.9" cy="289.633" r="4.5"/><circle cx="246.9" cy="289.633" r="4.5"/><circle cx="246.9" cy="289.633" r="4.5"/><circle cx="247.968" cy="289.633" r="4.5"/><circle cx="249.247" cy="289.633" r="4.5"/><circle cx="249.673" cy="289.633" r="4.5"/><circle cx="250.1" cy="289.633" r="4.5"/><circle cx="250.313" cy="289.633" r="4.5"/><circle cx="250.527" cy="289.633" r="4.5"/><circle cx="251.38" cy="289.633" r="4.5"/><circle cx="252.233" cy="289.633" r="4.5"/><circle cx="253.087" cy="289.633" r="4.5"/><circle cx="255.647" cy="289.633" r="4.5"/><circle cx="257.993" cy="289.633" r="4.5"/><circle cx="258.207" cy="289.633" r="4.5"/><circle cx="258.207" cy="289.633" r="4.5"/><circle cx="259.913" cy="289.633" r="4.5"/><circle cx="260.34" cy="289.633" r="4.5"/><circle cx="265.887" cy="289.633" r="4.5"/><circle cx="281.033" cy="289.633" r="4.5"/><circle cx="260.768" cy="288.017" r="4.5"/><circle cx="259.06" cy="287.556" r="4.5"/><circle cx="253.087" cy="286.402" r="4.5"/><circle cx="262.687" cy="285.248" r="4.5"/><circle cx="272.927" cy="285.248" r="4.5"/><circle cx="275.487" cy="283.632" r="4.5"/><circle cx="261.834" cy="282.939" r="4.5"/><circle cx="268.66" cy="282.939" r="4.5"/><circle cx="262.9" cy="282.247" r="4.5"/><circle cx="269.727" cy="282.247" r="4.5"/><circle cx="279.753" cy="281.092" r="4.5"/><circle cx="270.793" cy="280.4" r="4.5"/><circle cx="272.073" cy="280.4" r="4.5"/><circle cx="272.5" cy="280.4" r="4.5"/><circle cx="272.927" cy="280.4" r="4.5"/><circle cx="273.353" cy="280.4" r="4.5"/><circle cx="274.633" cy="280.4" r="4.5"/><circle cx="275.913" cy="280.4" r="4.5"/><circle cx="281.033" cy="280.4" r="4.5"/><circle cx="266.527" cy="279.938" r="4.5"/><circle cx="264.393" cy="279.015" r="4.5"/><circle cx="274.633" cy="279.015" r="4.5"/><circle cx="275.7" cy="278.322" r="4.5"/><circle cx="287.007" cy="276.707" r="4.5"/><circle cx="270.793" cy="274.86" r="4.5"/><circle cx="274.207" cy="274.86" r="4.5"/><circle cx="279.968" cy="274.86" r="4.5"/><circle cx="281.033" cy="274.86" r="4.5"/><circle cx="292.127" cy="273.706" r="4.5"/><circle cx="293.407" cy="272.783" r="4.5"/><circle cx="284.447" cy="272.552" r="4.5"/><circle cx="294.047" cy="272.321" r="4.5"/><circle cx="270.793" cy="271.168" r="4.5"/><circle cx="276.34" cy="271.168" r="4.5"/><circle cx="279.968" cy="271.168" r="4.5"/><circle cx="280.393" cy="271.168" r="4.5"/><circle cx="281.033" cy="271.168" r="4.5"/><circle cx="286.793" cy="271.168" r="4.5"/><circle cx="288.287" cy="270.243" r="4.5"/><circle cx="290.207" cy="268.627" r="4.5"/><circle cx="290.42" cy="268.627" r="4.5"/><circle cx="300.447" cy="268.627" r="4.5"/><circle cx="284.233" cy="266.088" r="4.5"/><circle cx="294.473" cy="266.088" r="4.5"/><circle cx="296.18" cy="264.934" r="4.5"/><circle cx="308.34" cy="263.78" r="4.5"/><circle cx="303.433" cy="262.857" r="4.5"/><circle cx="300.447" cy="262.164" r="4.5"/><circle cx="297.887" cy="259.856" r="4.5"/><circle cx="308.34" cy="259.625" r="4.5"/><circle cx="315.168" cy="259.625" r="4.5"/><circle cx="315.593" cy="253.162" r="4.5"/><circle cx="314.953" cy="252.931" r="4.5"/><circle cx="314.953" cy="252.931" r="4.5"/><circle cx="315.168" cy="252.931" r="4.5"/><circle cx="315.168" cy="252.931" r="4.5"/><circle cx="280.82" cy="252.7" r="4.5"/><circle cx="281.033" cy="252.7" r="4.5"/><circle cx="281.247" cy="252.7" r="4.5"/><circle cx="298.1" cy="252.7" r="4.5"/><circle cx="304.927" cy="252.7" r="4.5"/><circle cx="306.633" cy="252.7" r="4.5"/><circle cx="307.273" cy="252.7" r="4.5"/><circle cx="308.34" cy="252.7" r="4.5"/><circle cx="314.953" cy="252.7" r="4.5"/><circle cx="314.953" cy="252.7" r="4.5"/><circle cx="314.953" cy="252.7" r="4.5"/><circle cx="314.953" cy="252.7" r="4.5"/><circle cx="315.168" cy="252.7" r="4.5"/><circle cx="315.168" cy="252.7" r="4.5"/><circle cx="315.168" cy="252.7" r="4.5"/><circle cx="315.168" cy="252.7" r="4.5"/><circle cx="315.168" cy="252.7" r="4.5"/><circle cx="315.168" cy="252.7" r="4.5"/><circle cx="315.168" cy="252.7" r="4.5"/><circle cx="315.168" cy="252.7" r="4.5"/><circle cx="315.168" cy="252.7" r="4.5"/><circle cx="315.168" cy="252.7" r="4.5"/><circle cx="315.168" cy="252.7" r="4.5"/><circle cx="315.168" cy="252.7" r="4.5"/><circle cx="315.168" cy="252.7" r="4.5"/><circle cx="315.168" cy="252.7" r="4.5"/><circle cx="315.168" cy="252.7" r="4.5"/><circle cx="315.168" cy="252.7" r="4.5"/><circle cx="315.168" cy="252.7" r="4.5"/><circle cx="315.168" cy="252.7" r="4.5"/><circle cx="315.168" cy="252.7" r="4.5"/><circle cx="315.168" cy="252.7" r="4.5"/><circle cx="315.168" cy="252.7" r="4.5"/><circle cx="315.168" cy="252.7" r="4.5"/><circle cx="315.168" cy="252.7" r="4.5"/><circle cx="315.168" cy="252.7" r="4.5"/><circle cx="315.168" cy="252.7" r="4.5"/><circle cx="315.168" cy="252.7" r="4.5"/><circle cx="315.168" cy="252.7" r="4.5"/><circle cx="315.168" cy="252.7" r="4.5"/><circle cx="315.168" cy="252.7" r="4.5"/><circle cx="315.168" cy="252.7" r="4.5"/><circle cx="315.168" cy="252.7" r="4.5"/><circle cx="315.168" cy="252.7" r="4.5"/><circle cx="315.168" cy="252.7" r="4.5"/><circle cx="315.168" cy="252.7" r="4.5"/><circle cx="315.168" cy="252.7" r="4.5"/><circle cx="315.168" cy="252.7" r="4.5"/><circle cx="315.38" cy="252.7" r="4.5"/><circle cx="315.38" cy="252.7" r="4.5"/><circle cx="315.38" cy="252.7" r="4.5"/><circle cx="316.233" cy="252.7" r="4.5"/><circle cx="318.793" cy="252.7" r="4.5"/><circle cx="326.473" cy="252.7" r="4.5"/><circle cx="326.473" cy="252.7" r="4.5"/><circle cx="326.687" cy="252.7" r="4.5"/><circle cx="326.687" cy="252.7" r="4.5"/><circle cx="326.687" cy="252.7" r="4.5"/><circle cx="326.687" cy="252.7" r="4.5"/><circle cx="326.687" cy="252.7" r="4.5"/><circle cx="326.687" cy="252.7" r="4.5"/><circle cx="326.687" cy="252.7" r="4.5"/><circle cx="326.687" cy="252.7" r="4.5"/><circle cx="326.9" cy="252.7" r="4.5"/><circle cx="326.9" cy="252.7" r="4.5"/><circle cx="326.9" cy="252.7" r="4.5"/><circle cx="326.9" cy="252.7" r="4.5"/><circle cx="349.3" cy="252.7" r="4.5"/><circle cx="363.168" cy="252.7" r="4.5"/><circle cx="314.953" cy="252.469" r="4.5"/><circle cx="315.168" cy="252.469" r="4.5"/><circle cx="315.168" cy="252.469" r="4.5"/><circle cx="315.38" cy="252.469" r="4.5"/><circle cx="326.687" cy="252.469" r="4.5"/><circle cx="316.233" cy="252.007" r="4.5"/><circle cx="317.3" cy="251.315" r="4.5"/><circle cx="322.633" cy="247.852" r="4.5"/><circle cx="287.22" cy="247.622" r="4.5"/><circle cx="325.834" cy="245.775" r="4.5"/><circle cx="327.968" cy="244.39" r="4.5"/><circle cx="331.168" cy="242.313" r="4.5"/><circle cx="335.647" cy="242.313" r="4.5"/><circle cx="336.5" cy="238.85" r="4.5"/><circle cx="349.087" cy="238.85" r="4.5"/><circle cx="349.3" cy="238.85" r="4.5"/><circle cx="349.3" cy="238.85" r="4.5"/><circle cx="349.3" cy="238.85" r="4.5"/><circle cx="349.3" cy="238.85" r="4.5"/><circle cx="349.3" cy="238.85" r="4.5"/><circle cx="349.3" cy="238.85" r="4.5"/><circle cx="349.3" cy="238.85" r="4.5"/><circle cx="349.3" cy="238.85" r="4.5"/><circle cx="349.3" cy="238.85" r="4.5"/><circle cx="349.3" cy="238.85" r="4.5"/><circle cx="349.513" cy="238.85" r="4.5"/><circle cx="349.513" cy="238.85" r="4.5"/><circle cx="349.087" cy="238.619" r="4.5"/><circle cx="349.3" cy="238.619" r="4.5"/><circle cx="349.3" cy="238.619" r="4.5"/><circle cx="349.513" cy="238.619" r="4.5"/><circle cx="338.633" cy="237.465" r="4.5"/><circle cx="315.168" cy="236.08" r="4.5"/><circle cx="362.953" cy="236.08" r="4.5"/><circle cx="347.168" cy="231.925" r="4.5"/><circle cx="360.82" cy="231.925" r="4.5"/><circle cx="349.3" cy="230.54" r="4.5"/><circle cx="362.953" cy="230.54" r="4.5"/><circle cx="352.5" cy="228.463" r="4.5"/><circle cx="362.74" cy="225.231" r="4.5"/><circle cx="362.953" cy="225.231" r="4.5"/><circle cx="362.953" cy="225.231" r="4.5"/><circle cx="315.168" cy="225" r="4.5"/><circle cx="315.168" cy="225" r="4.5"/><circle cx="315.168" cy="225" r="4.5"/><circle cx="315.168" cy="225" r="4.5"/><circle cx="315.168" cy="225" r="4.5"/><circle cx="315.168" cy="225" r="4.5"/><circle cx="315.168" cy="225" r="4.5"/><circle cx="315.168" cy="225" r="4.5"/><circle cx="315.168" cy="225" r="4.5"/><circle cx="357.834" cy="225" r="4.5"/><circle cx="362.953" cy="225" r="4.5"/><circle cx="362.953" cy="225" r="4.5"/><circle cx="362.953" cy="225" r="4.5"/><circle cx="362.953" cy="225" r="4.5"/><circle cx="362.953" cy="225" r="4.5"/><circle cx="362.953" cy="225" r="4.5"/><circle cx="362.953" cy="225" r="4.5"/><circle cx="362.953" cy="225" r="4.5"/><circle cx="362.953" cy="225" r="4.5"/><circle cx="362.953" cy="225" r="4.5"/><circle cx="362.953" cy="225" r="4.5"/><circle cx="362.953" cy="225" r="4.5"/><circle cx="362.953" cy="225" r="4.5"/><circle cx="362.953" cy="225" r="4.5"/><circle cx="363.168" cy="225" r="4.5"/><circle cx="315.168" cy="224.769" r="4.5"/><circle cx="364.233" cy="224.077" r="4.5"/><circle cx="359.968" cy="223.615" r="4.5"/><circle cx="365.727" cy="223.153" r="4.5"/><circle cx="362.1" cy="222.23" r="4.5"/><circle cx="320.5" cy="220.614" r="4.5"/><circle cx="368.5" cy="218.075" r="4.5"/><circle cx="349.3" cy="215.768" r="4.5"/><circle cx="349.3" cy="215.768" r="4.5"/><circle cx="389.407" cy="214.613" r="4.5"/><circle cx="375.968" cy="213.227" r="4.5"/><circle cx="342.473" cy="211.612" r="4.5"/><circle cx="415.433" cy="211.612" r="4.5"/><circle cx="379.168" cy="211.15" r="4.5"/><circle cx="415.433" cy="209.303" r="4.5"/><circle cx="397.087" cy="207.918" r="4.5"/><circle cx="390.26" cy="207.688" r="4.5"/><circle cx="400.5" cy="207.688" r="4.5"/><circle cx="397.087" cy="207.226" r="4.5"/><circle cx="393.034" cy="205.841" r="4.5"/><circle cx="392.607" cy="204.456" r="4.5"/><circle cx="389.834" cy="204.225" r="4.5"/><circle cx="397.087" cy="204.225" r="4.5"/><circle cx="391.968" cy="202.84" r="4.5"/><circle cx="402.207" cy="202.378" r="4.5"/><circle cx="415.433" cy="202.378" r="4.5"/><circle cx="342.473" cy="201.686" r="4.5"/><circle cx="397.087" cy="201.455" r="4.5"/><circle cx="403.913" cy="198.916" r="4.5"/><circle cx="417.353" cy="197.531" r="4.5"/><circle cx="349.3" cy="197.3" r="4.5"/><circle cx="349.3" cy="197.3" r="4.5"/><circle cx="362.953" cy="197.3" r="4.5"/><circle cx="400.5" cy="197.3" r="4.5"/><circle cx="417.567" cy="197.3" r="4.5"/><circle cx="417.567" cy="197.3" r="4.5"/><circle cx="417.567" cy="197.3" r="4.5"/><circle cx="417.78" cy="197.3" r="4.5"/><circle cx="434.633" cy="197.3" r="4.5"/><circle cx="435.913" cy="197.3" r="4.5"/><circle cx="417.567" cy="197.069" r="4.5"/><circle cx="401.567" cy="196.607" r="4.5"/><circle cx="416.287" cy="191.298" r="4.5"/><circle cx="357.834" cy="190.375" r="4.5"/><circle cx="417.567" cy="190.375" r="4.5"/><circle cx="304.927" cy="225" r="4.5"/><circle cx="417.567" cy="189.913" r="4.5"/><circle cx="418.847" cy="189.452" r="4.5"/><circle cx="362.953" cy="186.22" r="4.5"/><circle cx="362.953" cy="186.22" r="4.5"/><circle cx="362.953" cy="186.22" r="4.5"/><circle cx="362.953" cy="186.22" r="4.5"/><circle cx="363.168" cy="186.22" r="4.5"/><circle cx="417.353" cy="186.22" r="4.5"/><circle cx="417.567" cy="186.22" r="4.5"/><circle cx="417.567" cy="186.22" r="4.5"/><circle cx="417.567" cy="186.22" r="4.5"/><circle cx="417.567" cy="186.22" r="4.5"/><circle cx="435.913" cy="186.22" r="4.5"/><circle cx="362.953" cy="185.989" r="4.5"/><circle cx="417.567" cy="185.989" r="4.5"/><circle cx="439.327" cy="184.143" r="4.5"/><circle cx="421.834" cy="183.45" r="4.5"/><circle cx="431.22" cy="181.603" r="4.5"/><circle cx="431.22" cy="181.142" r="4.5"/><circle cx="465.353" cy="181.142" r="4.5"/><circle cx="315.168" cy="236.08" r="4.5"/><circle cx="349.3" cy="178.833" r="4.5"/><circle cx="417.567" cy="178.833" r="4.5"/><circle cx="417.567" cy="178.833" r="4.5"/><circle cx="417.567" cy="178.833" r="4.5"/><circle cx="417.567" cy="178.833" r="4.5"/><circle cx="417.78" cy="178.833" r="4.5"/><circle cx="417.78" cy="178.602" r="4.5"/><circle cx="451.7" cy="176.525" r="4.5"/><circle cx="485.834" cy="166.83" r="4.5"/><circle cx="326.687" cy="252.7" r="4.5"/><circle cx="390.26" cy="164.06" r="4.5"/><circle cx="484.98" cy="156.442" r="4.5"/><circle cx="400.5" cy="155.75" r="4.5"/><circle cx="472.18" cy="155.75" r="4.5"/><circle cx="397.087" cy="154.134" r="4.5"/><circle cx="339.273" cy="224.769" r="4.5"/><circle cx="482.42" cy="144.208" r="4.5"/><circle cx="347.38" cy="186.22" r="4.5"/><circle cx="485.834" cy="141.9" r="4.5"/><circle cx="349.727" cy="235.849" r="4.5"/><circle cx="533.62" cy="139.592" r="4.5"/><circle cx="352.713" cy="225" r="4.5"/><circle cx="352.713" cy="186.22" r="4.5"/><circle cx="533.62" cy="130.589" r="4.5"/><circle cx="361.887" cy="215.768" r="4.5"/><circle cx="361.887" cy="178.833" r="4.5"/><circle cx="362.953" cy="236.08" r="4.5"/><circle cx="362.953" cy="225" r="4.5"/><circle cx="362.953" cy="203.071" r="4.5"/><circle cx="362.953" cy="197.3" r="4.5"/><circle cx="362.953" cy="152.98" r="4.5"/><circle cx="554.1" cy="125.28" r="4.5"/><circle cx="368.5" cy="218.075" r="4.5"/><circle cx="372.127" cy="226.847" r="4.5"/><circle cx="372.127" cy="189.913" r="4.5"/><circle cx="533.62" cy="115.354" r="4.5"/><circle cx="389.834" cy="204.225" r="4.5"/><circle cx="472.18" cy="97.58" r="4.5"/><circle cx="554.1" cy="97.58" r="4.5"/><circle cx="554.1" cy="97.58" r="4.5"/><circle cx="579.7" cy="97.58" r="4.5"/><circle cx="400.5" cy="197.3" r="4.5"/><circle cx="554.1" cy="86.5" r="4.5"/><circle cx="401.567" cy="200.762" r="4.5"/><circle cx="403.487" cy="210.458" r="4.5"/><circle cx="407.327" cy="178.833" r="4.5"/><circle cx="409.247" cy="159.905" r="4.5"/><circle cx="417.567" cy="208.38" r="4.5"/><circle cx="417.567" cy="197.3" r="4.5"/><circle cx="417.567" cy="189.913" r="4.5"/><circle cx="417.567" cy="186.22" r="4.5"/><circle cx="417.567" cy="178.833" r="4.5"/><circle cx="425.46" cy="178.833" r="4.5"/><circle cx="435.7" cy="189.913" r="4.5"/><circle cx="435.7" cy="138.207" r="4.5"/><circle cx="435.913" cy="197.3" r="4.5"/><circle cx="451.7" cy="176.525" r="4.5"/><circle cx="489.887" cy="117.662" r="4.5"/><circle cx="502.9" cy="132.205" r="4.5"/></g><g><g><text x="144.5" y="384.9" fill="#222" font-family="Arial" font-size="14" text-anchor="middle">0</text></g><g><text x="272.5" y="384.9" fill="#222" font-family="Arial" font-size="14" text-anchor="middle">600</text></g><g><text x="400.5" y="384.9" fill="#222" font-family="Arial" font-size="14" text-anchor="middle">1,200</text></g><g><text x="528.5" y="384.9" fill="#222" font-family="Arial" font-size="14" text-anchor="middle">1,800</text></g><g><text x="656.5" y="384.9" fill="#222" font-family="Arial" font-size="14" text-anchor="middle">2,400</text></g><g><text x="130" y="368.4" fill="#222" font-family="Arial" font-size="14" text-anchor="end">0</text></g><g><text x="130" y="299.15" fill="#222" font-family="Arial" font-size="14" text-anchor="end">300</text></g><g><text x="130" y="229.9" fill="#222" font-family="Arial" font-size="14" text-anchor="end">600</text></g><g><text x="130" y="160.65" fill="#222" font-family="Arial" font-size="14" text-anchor="end">900</text></g><g><text x="130" y="91.4" fill="#222" font-family="Arial" font-size="14" text-anchor="end">1,200</text></g></g></g><g><g><text x="400.5" y="423.4" fill="#222" font-family="Arial" font-size="14" font-style="italic" text-anchor="middle">Width</text></g><g><text x="51.9" y="225" fill="#222" font-family="Arial" font-size="14" font-style="italic" text-anchor="middle" transform="rotate(-90 51.9 225)">Height</text></g></g></svg>